<svg width="26" height="24" viewBox="0 0 26 24" xmlns="http://www.w3.org/2000/svg"><g fill="none" fill-rule="evenodd"><g id="Group" fill-rule="nonzero"><path d="M25.962 10.291l-1.454 4.474-2.88 8.867a.495.495 0 0 1-.942 0l-2.881-8.867H8.238l-2.88 8.867a.495.495 0 0 1-.943 0l-2.88-8.867L.08 10.291a.99.99 0 0 1 .36-1.107L13.02.044l12.581 9.14a.99.99 0 0 1 .36 1.107" id="path46" fill="#FC6D26" transform="matrix(1 0 0 -1 0 24.018)"/><path id="path50" fill="#E24329" transform="matrix(1 0 0 -1 0 33.226)" d="M13.021 9.252l4.784 14.722H8.238z"/><path id="path58" fill="#FC6D26" transform="matrix(1 0 0 -1 0 33.226)" d="M13.021 9.252L8.238 23.974H1.534z"/><path d="M1.534 23.974L.081 19.5a.99.99 0 0 1 .36-1.107l12.58-9.14-11.487 14.72z" id="path66" fill="#FCA326" transform="matrix(1 0 0 -1 0 33.226)"/><path d="M1.534.044h6.704L5.358 8.91a.495.495 0 0 1-.943 0L1.535.044z" id="path74" fill="#E24329" transform="matrix(1 0 0 -1 0 9.296)"/><path id="path78" fill="#FC6D26" transform="matrix(1 0 0 -1 0 33.226)" d="M13.021 9.252l4.784 14.722h6.704z"/><path d="M24.509 23.974l1.453-4.474a.99.99 0 0 0-.36-1.107l-12.58-9.14 11.487 14.72z" id="path82" fill="#FCA326" transform="matrix(1 0 0 -1 0 33.226)"/><path d="M24.509.044h-6.704l2.88 8.866a.495.495 0 0 0 .943 0l2.88-8.866z" id="path86" fill="#E24329" transform="matrix(1 0 0 -1 0 9.296)"/></g></g></svg>