<?xml version="1.0" encoding="UTF-8"?>
<svg width="25px" height="24px" viewBox="0 0 25 24" version="1.1" xmlns="http://www.w3.org/2000/svg" xmlns:xlink="http://www.w3.org/1999/xlink">
    <!-- Generator: Sketch 50.2 (55047) - http://www.bohemiancoding.com/sketch -->
    <title>github</title>
    <desc>Created with Sketch.</desc>
    <defs></defs>
    <g id="Page-1" stroke="none" stroke-width="1" fill="none" fill-rule="evenodd">
        <g id="Directory" transform="translate(-1233.000000, -16.000000)" fill="#181717">
            <g id="Group-9">
                <g id="Group" transform="translate(1233.000000, 16.000000)">
                    <path d="M12.3033088,0 C5.50925991,0 0,5.5085046 0,12.3048195 C0,17.7400586 3.52505018,22.3512503 8.41495266,23.9789518 C9.03053353,24.0914936 9.25486177,23.7115707 9.25486177,23.385275 C9.25486177,23.0937239 9.24428737,22.3195271 9.23824486,21.2930554 C5.81591738,22.0362843 5.09383724,19.6434498 5.09383724,19.6434498 C4.53414961,18.2219489 3.72747432,17.8442919 3.72747432,17.8442919 C2.61036499,17.0806696 3.81206948,17.0957758 3.81206948,17.0957758 C5.04700778,17.1833922 5.69657777,18.3639479 5.69657777,18.3639479 C6.79404893,20.2439244 8.57583453,19.7008536 9.27752119,19.386643 C9.38930765,18.5912974 9.70653951,18.048982 10.0585158,17.7415693 C7.32654527,17.4311352 4.45408633,16.3752063 4.45408633,11.6605367 C4.45408633,10.3175885 4.93371069,9.21936201 5.72074782,8.35905943 C5.59385508,8.04787008 5.17163458,6.79707019 5.84084274,5.10290101 C5.84084274,5.10290101 6.87411221,4.7720735 9.22464921,6.3642753 C10.205802,6.09085165 11.2587097,5.95489514 12.3048195,5.94960794 C13.3494187,5.95489514 14.4023263,6.09085165 15.3849897,6.3642753 C17.7340161,4.7720735 18.7650196,5.10290101 18.7650196,5.10290101 C19.4364937,6.79707019 19.0142733,8.04787008 18.8873805,8.35905943 C19.6759283,9.21936201 20.1525314,10.3175885 20.1525314,11.6605367 C20.1525314,16.3872913 17.2755405,17.4273587 14.5345062,17.7317502 C14.9763649,18.1116731 15.3698835,18.8624551 15.3698835,20.0105323 C15.3698835,21.6548508 15.3547772,22.9819374 15.3547772,23.385275 C15.3547772,23.7145919 15.5760842,24.0975361 16.2007288,23.9774412 C21.0853441,22.3467184 24.6081283,17.738548 24.6081283,12.3048195 C24.6081283,5.5085046 19.0988684,0 12.3033088,0" id="github"></path>
                </g>
            </g>
        </g>
    </g>
</svg>
