<svg data-name="Layer 1" xmlns="http://www.w3.org/2000/svg" width="51" height="20" viewBox="0 0 95.66 36.76"><path d="M87.25 23.62a5.27 5.27 0 004.08 2.27 4.2 4.2 0 004.14-4.27 3.18 3.18 0 00-.47-1.88l-5.88-6.28 6.08-7.18a4 4 0 00.45-1.94 4.07 4.07 0 00-4-4.34 5.32 5.32 0 00-4.53 2.33L83 7.51l-4.17-5.18A5.32 5.32 0 0074.3 0a4.07 4.07 0 00-4 4.34 3.86 3.86 0 00.46 1.94l6.08 7.18-5.89 6.28a3.25 3.25 0 00-.45 1.88 4.2 4.2 0 004.14 4.27 5.29 5.29 0 004.08-2.27l4.28-5.5z" fill="#febf24"/><path d="M63.62 36.76a4.26 4.26 0 004.27-4.21 4.31 4.31 0 00-4.27-4.27H50.16V4.53a4.53 4.53 0 10-9.06 0v27.7a4.5 4.5 0 004.53 4.53zM0 32.23a4.51 4.51 0 004.53 4.53 4.51 4.51 0 004.53-4.53V14.17L23 24.92v7.31a4.53 4.53 0 009.06 0V4.53a4.53 4.53 0 10-9.06 0v8.8L7.05.91A4.17 4.17 0 004.27 0 4.38 4.38 0 000 4.4z" fill="#ededee"/></svg>