<svg viewBox="0 0 26 28" xmlns="http://www.w3.org/2000/svg" fill="currentColor"><path d="M1.453 20.667A13.357 13.357 0 01.15 17.565a4 4 0 00.003-7.129 13.32 13.32 0 013.335-5.783A4 4 0 009.66 1.088a13.32 13.32 0 016.676.003 4 4 0 006.176 3.562 13.321 13.321 0 012.034 2.68c.577.999 1.009 2.04 1.304 3.102a4 4 0 00-.003 7.129 13.32 13.32 0 01-3.335 5.783 4 4 0 00-6.174 3.565 13.32 13.32 0 01-6.676-.003 4 4 0 00-6.176-3.562 13.357 13.357 0 01-2.034-2.68zM9 20.928a6.657 6.657 0 013 3.693c.665.063 1.333.064 1.999.002A6.657 6.657 0 0117 20.929a6.657 6.657 0 014.7-.753c.387-.544.72-1.124.997-1.73A6.657 6.657 0 0121 14c0-1.68.627-3.25 1.697-4.445a10.835 10.835 0 00-1-1.731A6.657 6.657 0 0117 7.072a6.657 6.657 0 01-3-3.693 10.648 10.648 0 00-1.999-.002A6.657 6.657 0 019 7.071a6.657 6.657 0 01-4.7.753c-.386.544-.72 1.124-.997 1.73A6.657 6.657 0 015 14c0 1.68-.627 3.25-1.697 4.445.279.607.614 1.186 1 1.731A6.657 6.657 0 019 20.928zM13 18a4 4 0 110-8 4 4 0 010 8zm0-2.667a1.333 1.333 0 100-2.666 1.333 1.333 0 000 2.666z" fill="#9E9E9E" fill-rule="nonzero"/></svg>
