<svg viewBox="0 0 24 24" xmlns="http://www.w3.org/2000/svg" fill-rule="evenodd" clip-rule="evenodd" stroke-linejoin="round" stroke-miterlimit="2" fill="currentColor">
    <path d="M13,18L13,20L19,20L19,22L13,22C11.903,22 11,21.097 11,20L11,18L8,18C5.806,18 4,16.194 4,14L4,7C4,6.451 4.451,6 5,6L8,6L8,2L10,2L10,6L14,6L14,2L16,2L16,6L19,6C19.549,6 20,6.451 20,7L20,14C20,16.194 18.194,18 16,18L13,18ZM8,16L16,16C17.097,16 18,15.097 18,14L18,11L6,11L6,14C6,15.097 6.903,16 8,16ZM18,8L6,8L6,9L18,9L18,8ZM12,14.5C11.451,14.5 11,14.049 11,13.5C11,12.951 11.451,12.5 12,12.5C12.549,12.5 13,12.951 13,13.5C13,14.049 12.549,14.5 12,14.5Z" style="fill-rule:nonzero;"/>
    <g id="elec">
        <path d="M13,18L13,20L19,20L19,22L13,22C11.903,22 11,21.097 11,20L11,18L8,18C5.806,18 4,16.194 4,14L4,7C4,6.451 4.451,6 5,6L8,6L8,5.093L10,5.093L10,6L14,6L14,5.093L16,5.093L16,6L19,6C19.549,6 20,6.451 20,7L20,14C20,16.194 18.194,18 16,18L13,18ZM8,16L16,16C17.097,16 18,15.097 18,14L18,11L6,11L6,14C6,15.097 6.903,16 8,16ZM18,8L6,8L6,9L18,9L18,8ZM12,14.5C11.451,14.5 11,14.049 11,13.5C11,12.951 11.451,12.5 12,12.5C12.549,12.5 13,12.951 13,13.5C13,14.049 12.549,14.5 12,14.5Z" style="fill-rule:nonzero;"/>
        <path d="M10.454,0.612L7.746,2.358L9.934,2.825L8.161,5.171"  stroke="currentColor" style="fill-rule:nonzero;" />
        <path d="M13.193,0.734L14.453,3.225L15.178,1.793L16.135,5.138" stroke="currentColor" style="fill-rule:nonzero;" />
    </g>
</svg>
