<svg width="250" height="161" xmlns="http://www.w3.org/2000/svg"><defs><linearGradient x1="56.947%" y1="-14.5%" x2="44.688%" y2="103.75%" id="a"><stop stop-color="#EE9224" offset="0%"/><stop stop-color="#FCB850" offset="100%"/></linearGradient><linearGradient x1="55.855%" y1="-14.286%" x2="45.915%" y2="102.653%" id="b"><stop stop-color="#EE9224" offset="0%"/><stop stop-color="#FCB850" offset="100%"/></linearGradient><linearGradient x1="49.923%" y1="42.107%" x2="50.066%" y2="-3.126%" id="c"><stop stop-color="#50A3CB" offset="0%"/><stop stop-color="#084078" offset="100%"/></linearGradient><linearGradient x1="50.074%" y1="41.471%" x2="49.939%" y2="-1.98%" id="d"><stop stop-color="#50A3CB" offset="0%"/><stop stop-color="#084078" offset="100%"/></linearGradient><linearGradient x1="24.545%" y1="-2.324%" x2="68.909%" y2="85.417%" id="e"><stop stop-color="#EE9224" offset="0%"/><stop stop-color="#FCB850" offset="100%"/></linearGradient><linearGradient x1="50.076%" y1="30.16%" x2="49.238%" y2="97.084%" id="f"><stop stop-color="#005282" offset="0%"/><stop stop-color="#0868A0" offset="100%"/></linearGradient><linearGradient x1="50.203%" y1="28.094%" x2="49.849%" y2="109.988%" id="g"><stop stop-color="#005282" offset="0%"/><stop stop-color="#0868A0" offset="100%"/></linearGradient><linearGradient x1="24.378%" y1="53.171%" x2="82.028%" y2="48.049%" id="h"><stop stop-color="#EE9224" offset="0%"/><stop stop-color="#FCB850" offset="100%"/></linearGradient><linearGradient x1="99.788%" y1="50.331%" x2=".285%" y2="50.331%" id="i"><stop stop-color="#EE9224" offset="0%"/><stop stop-color="#FCB850" offset="100%"/></linearGradient></defs><g fill-rule="nonzero" fill="none"><path d="M68.896 70.482c-11.932-.639-24.11-1.327-35.847.345-11.736 1.622-23.276 5.9-29.267 13.03-6.04 7.13-5.009 17.308 4.272 22.52 5.255 2.95 12.179 4.032 18.808 4.966 6.63.934 13.602 1.869 19.053 4.622 5.45 2.754.196 7.966-2.652 12.195-2.111 3.097-6.875 4.917-9.526 7.768-4.322 4.77-1.424 11.359 4.517 15.194 5.942 3.835 14.192 5.458 22.196 6.54 30.004 4.229 61.088 3.196 91.533.983 30.495-2.262 62.66-.196 85.494-14.26 7.856-4.867 14.682-11.948 11.883-18.979-2.553-6.392-12.325-10.178-21.754-11.653-9.428-1.476-19.347-7.474-28.481-9.638-6.187-1.426-12.473-4.425-13.455-8.9-.884-3.835 2.455-7.621 2.455-11.506 0-5.212-6.138-9.735-13.16-11.702-7.022-1.967-14.928-1.967-22.54-1.918-40.561.197-72.382.443-112.943.64" fill-opacity=".046" fill="#000"/><path fill="#000" opacity=".101" d="M34.059 94.173L24.39 76.517l14.228-.636z"/><path d="M33.856 94.173l117.648-12.9c.541 0 .935-.343.935-.784V.785c0-.442-.443-.785-.935-.785h-36.116c-.541 0-.935.343-.935.785l.05 5.444c0 .442-.443.785-.935.785h-83.5c-.542 0-.935.343-.935.785l1.919 79.998c-.05.49 2.263 6.376 2.804 6.376z" fill="#0B71A1"/><path fill="#F1F1F2" d="M45.393 95.528h92.818V8.398L45.393 2.032z"/><path d="M33.875 14.292v79.773c0 .442.443.786.934.786h119.406c.54 0 .934-.344.934-.786v-72.7c0-.442-.442-.786-.934-.786h-82.06c-.541 0-.934-.344-.934-.786l.049-5.452c0-.442-.443-.786-.934-.786H34.81c-.54-.05-.934.295-.934.737z" fill="#3097C8"/><path d="M152.573 120.935l-9.116-12.97 9.116-.145 8.674 13.454m-93.237-2.42l-9.067-13.018 55.094-.145 9.807 15.099" fill="#000" opacity=".101"/><path d="M206.1 121.078l-54.23-.588-7.117-35.387a13.892 13.892 0 007.313-12.252c0-7.695-6.233-13.92-13.938-13.92h-.148c-7.607.099-13.79 6.274-13.79 13.92 0 5.342 2.993 9.949 7.41 12.302l-6.33 35.386H71.578V31.632h134.52v89.446z" fill="#FEBF24"/><path fill="#FCAA27" d="M71.726 120.637l-3.583-2.108-.049-89.004 3.632 2.254z"/><path d="M147.403 84.956l6.871 35.632h-2.258L144.9 85.202a13.892 13.892 0 007.313-12.253c0-7.695-6.233-13.92-13.938-13.92h-.147a16.154 16.154 0 012.65-.244c7.705 0 13.938 6.224 13.938 13.919 0 5.342-2.945 9.9-7.313 12.252z" fill="#EE9224" opacity=".71"/><path fill="#F99528" d="M68.094 29.623l3.632 2.254h134.52l-4.514-2.254z"/><g transform="translate(131.436 55.556)"><path d="M20.784 66.988c.893 1.276 1.835 2.65 1.29 4.221-.497 1.57-2.828 3.435-6.3 4.368-2.877.736-5.903.736-7.937.196-2.033-.54-3.174-1.521-4.067-2.552C.794 69.835.446 65.713.149 61.64c-.1-1.129.149-2.6 2.53-3.582 1.736-.687 3.968-.835 5.506-.59 1.537.246 2.53.835 3.373 1.424 4.365 2.994 8.482 4.122 9.226 8.097" fill="#000" opacity=".101"/><path fill="url(#a)" d="M14.93 70.178h1.588v1.963H14.93z"/><path fill="url(#b)" d="M8.036 69.933h1.587v2.405H8.036z"/><path d="M14.137 73.908h6.25c.1 0 .198-.098.198-.196v-.098c0-.098-.099-.197-.198-.197h-6.25c-.1 0-.199.099-.199.197v.147c0 .098.1.147.199.147z" fill="#053C68"/><path d="M16.915 71.454s.099.393.843.687c.248.099 1.14.246 1.34.393.594.295 1.24.49 1.339.883h-6.4s.05-1.374.646-1.963c0 0 .297-.245.396 0 .1.246.199.442.199.442s.397.344.942 0c.1-.294 0-.147.149-.442.149-.392.546 0 .546 0z" fill="#0452A0"/><path d="M5.655 35.629S9.722 51.628 7.39 70.326h2.678s4.415-18.158.645-34.353" fill="url(#c)"/><path d="M13.046 35.629s3.373 15.999 1.041 34.697h3.324s4.414-18.158.645-34.353" fill="url(#d)"/><path fill="url(#e)" d="M11.31 10.11h2.728v-2.7H11.31z"/><path d="M15.923 2.748l-.397 4.074s-.248.883-1.538 1.423c0 0-1.14.736-2.926-.638 0 0-.397-.147-.397-1.129V5.202s-.447.098-.596-.589c-.05-.147 0-.442.05-.589.198-.392.645-.294.645-.294l1.091-2.356h1.488l2.58 1.374z" fill="#FCB850"/><path d="M10.417 4.613s-.15-1.276.05-2.16c.198-.883.595-2.159 2.33-2.159 0 0 1.29-.245 2.68 1.031 0 0 1.835 1.669 1.487 1.914-1.785 1.08-2.232.736-3.224 0L12.252 1.57s-.893 3.043-1.835 3.043z" fill="#003D61"/><path d="M18.65 10.453c-2.33-.834-4.662-.589-7.092-.589-2.431 0-4.762 1.03-4.762 1.03S2.133 28.66 3.522 36.759h17.063c.397-1.276-.05-4.908.1-8.785 0-.245 0-.54.05-.785.198-5.496.198-11.19.198-11.19l.595-3.484c-.1-.049-1.885-1.717-2.877-2.06z" fill="url(#f)"/><path d="M20.585 11.73l.893.735 5.605 9.62s.943 3.876-1.09 5.054c0 0-2.828 1.08-4.068.785l-8.086-2.65 4.762-1.325h1.984l-1.438-7.263" fill="url(#g)"/><path fill="url(#h)" d="M20.09 21.495l.396 2.012h-1.042l-.496-2.012z"/><path d="M9.127 10.159s-4.712 1.374-5.556 2.552L.446 21.495s-.644 2.798 1.19 4.368l1.489 1.816s1.091.638 3.968-.491c0 0 11.062-3.288 12.401-3.386l-.546-2.307-.05-.294s-12.251.245-13.144.589l1.934-5.202" fill="#005282"/><path d="M8.78 20.268c-.397-.736-1.092-1.276-1.836-1.423a2.457 2.457 0 00-2.132.589c-.348.294-.695.834-.497 1.325.15.344.447.49.794.49.347 0 .595-.146.893-.195.794-.197 1.587-.148 2.282.441.198-.343.446-.49.645-.834l-.15-.393z" fill="url(#i)"/><path fill="#0868A0" d="M13.84 21.348l-5.01-1.325-1.538 1.62z"/><path d="M10.02 71.454s.397.295.843.687c.05.05 1.389 1.424 1.141 1.424-1.042 0-4.812-.148-4.812-.148s.05-1.374.645-1.963c0 0-.248.148 0 0 .546-.294 2.183 0 2.183 0z" fill="#0452A0"/><path d="M7.242 73.908h4.762c.1 0 .198-.098.198-.196v-.098c0-.098-.099-.197-.198-.197H7.242c-.1 0-.198.099-.198.197v.147c0 .098.099.147.198.147z" fill="#053C68"/><circle fill="#FCB850" cx="10.615" cy="4.27" r="1"/></g></g></svg>