<svg xmlns="http://www.w3.org/2000/svg"
     viewBox="0 0 24 24" width="24" height="24">
    <path fill="none" d="M0 0h24v24H0z"/>
    <path class="mainPath" transform="translate(6.000000, 6.000000)"
          d="M6,0 C9.3137085,0 12,2.6862915 12,6 C12,9.3137085 9.3137085,12 6,12 C2.6862915,12 0,9.3137085 0,6 C0,2.6862915 2.6862915,0 6,0 Z M6,2 C5.65478811,2 5.31979009,2.04373079 5.00024347,2.12595483 L5.00024347,9.87404517 C5.31979009,9.95626921 5.65478811,10 6,10 C8.209139,10 10,8.209139 10,6 C10,3.790861 8.209139,2 6,2 Z"/>
</svg>
