<svg width="1778" height="143" xmlns="http://www.w3.org/2000/svg"><defs><linearGradient x1="0%" y1="49.993%" x2="65.808%" y2="57.489%" id="a"><stop stop-color="#FFF" stop-opacity="0" offset="0%"/><stop stop-color="#FFF" stop-opacity=".16" offset="100%"/></linearGradient><linearGradient x1="8.275%" y1="49.717%" x2="75.688%" y2="49.983%" id="b"><stop stop-color="#FFF" stop-opacity="0" offset="0%"/><stop stop-color="#FFF" stop-opacity=".101" offset="100%"/></linearGradient></defs><g fill="none" fill-rule="nonzero"><path d="M1192 143.204c16.793-29.246 26.467-49.031 29.021-59.357 20.3-82.177 53.71-167.739 120.742-210.255 60.16-38.18 139.35-32.258 198.135 8.566 58.679 40.825 96.741 112.955 106.574 188.575 3.117 23.806 4.504 47.974 4.504 72.077 0 .263-152.992.394-458.976.394z" fill="url(#a)" opacity=".43" transform="matrix(-1 0 0 1 2842.976 0)"/><path d="M645.339 141.754c-86.075-24.625-174.928-37.707-263.67-35.317-90.503-2.436-159.492 4.71-270.669 36.753 0-1.032 534.339 0 534.339-1.436z" fill="url(#b)" transform="matrix(-1 0 0 1 756.339 0)"/></g></svg>