<svg width="2706" height="547" xmlns="http://www.w3.org/2000/svg"><defs><linearGradient x1="0%" y1="49.995%" x2="65.808%" y2="55.769%" id="a"><stop stop-color="#FFF" stop-opacity="0" offset="0%"/><stop stop-color="#FFF" stop-opacity=".16" offset="100%"/></linearGradient><linearGradient x1="8.275%" y1="47.926%" x2="75.688%" y2="49.876%" id="b"><stop stop-color="#FFF" stop-opacity="0" offset="0%"/><stop stop-color="#FFF" stop-opacity=".101" offset="100%"/></linearGradient></defs><g fill-rule="nonzero" fill="none"><path d="M969 546.683H742.741l-1.586.317h-508.13c-1.057-.106-2.22-.212-3.277-.317H0c48.318-2.962 254.277-228.764 274.576-310.836 20.3-82.177 53.71-167.739 120.742-210.255 60.16-38.18 139.35-32.258 198.135 8.566 58.68 40.825 96.741 112.955 106.574 188.575 5.498 41.987 2.432 85.138 9.516 126.914 17.34 102.378 163.984 172.393 163.984 172.393S915.08 539.49 969 546.683z" fill="url(#a)" opacity=".43" transform="matrix(-1 0 0 1 1452 0)"/><path d="M1650.332 784H2622c-72.4-4.206-133.121-17.176-199.682-55.5-66.56-38.326-125.764-87.634-190.106-129.347-170.022-110.184-374.491-186.366-578.377-180.874-204.002-5.492-413.142 70.69-583.047 180.874-64.342 41.713-123.662 90.905-190.106 129.346C814.238 766.941 753.399 779.91 681 784h971.668-2.336z" fill="url(#b)" transform="matrix(-1 0 0 1 3786 0)"/></g></svg>