<svg width="904" height="312" xmlns="http://www.w3.org/2000/svg"><defs><linearGradient x1="0%" y1="49.995%" x2="65.808%" y2="55.769%" id="a"><stop stop-color="#FFF" stop-opacity="0" offset="0%"/><stop stop-color="#FFF" stop-opacity=".16" offset="100%"/></linearGradient></defs><path d="M554.473 312.818H425.006l-.908.182H133.34c-.605-.06-1.27-.121-1.876-.182H0c27.648-1.694 145.5-130.901 157.116-177.863 11.616-47.023 30.733-95.983 69.09-120.311C260.63-7.203 305.944-3.814 339.58 19.546c33.577 23.36 55.357 64.634 60.983 107.904 3.146 24.026 1.391 48.718 5.445 72.622 9.922 58.582 93.834 98.646 93.834 98.646s23.776 9.985 54.63 14.1z" transform="matrix(-1 0 0 1 903.737 0)" fill="url(#a)" fill-rule="nonzero" opacity=".43"/></svg>