<svg width="1668" height="560" xmlns="http://www.w3.org/2000/svg"><defs><linearGradient x1="8.275%" y1="31.416%" x2="75.688%" y2="48.892%" id="a"><stop stop-opacity=".077" offset="0%"/><stop stop-color="#FFF" stop-opacity=".101" offset="100%"/></linearGradient></defs><path d="M995 559.683H768.741l-1.586.317h-508.13c-1.057-.106-2.22-.212-3.277-.317H26c48.318-2.962 254.277-228.764 274.576-310.836 20.3-82.177 53.71-167.739 120.742-210.255 60.16-38.18 139.35-32.258 198.135 8.566 58.68 40.825 96.741 112.955 106.574 188.575 5.498 41.987 2.432 85.138 9.516 126.914 17.34 102.378 163.984 172.393 163.984 172.393S941.08 552.49 995 559.683z" fill="url(#a)" fill-rule="nonzero" transform="matrix(-1 0 0 1 1021 0)" opacity=".529"/></svg>