<?xml version="1.0" encoding="UTF-8"?>
<svg width="26px" height="24px" viewBox="0 0 26 24" version="1.1" xmlns="http://www.w3.org/2000/svg" xmlns:xlink="http://www.w3.org/1999/xlink">
    <!-- Generator: Sketch 50.2 (55047) - http://www.bohemiancoding.com/sketch -->
    <title>Group</title>
    <desc>Created with Sketch.</desc>
    <defs></defs>
    <g stroke="none" stroke-width="1" fill="none" fill-rule="evenodd">
        <g id="Group" fill-rule="nonzero">
            <path d="M25.9621264,10.2914312 L24.5084825,14.7651717 L21.6275682,23.631844 C21.4793836,24.0880022 20.8339683,24.0880022 20.6857133,23.631844 L17.8047288,14.7651717 L8.23813561,14.7651717 L5.35708072,23.631844 C5.20889612,24.0880022 4.56348075,24.0880022 4.41522581,23.631844 L1.53431159,14.7651717 L0.0807380028,10.2914312 C-0.0519037524,9.88337843 0.0933973429,9.43636308 0.440474258,9.18416084 L13.021397,0.0436248264 L25.6023901,9.18416084 C25.949467,9.43636308 26.0946978,9.88337843 25.9621264,10.2914312" id="path46" fill="#FC6D26" transform="translate(13.021417, 12.008794) scale(-1, 1) rotate(-180.000000) translate(-13.021417, -12.008794) "></path>
            <polygon id="path50" fill="#E24329" transform="translate(13.021425, 16.613189) scale(-1, 1) rotate(-180.000000) translate(-13.021425, -16.613189) " points="13.0214252 9.25241575 13.0214252 9.25241575 17.8047569 23.9739626 8.23809341 23.9739626"></polygon>
            <polygon id="path58" fill="#FC6D26" transform="translate(7.277882, 16.613196) scale(-1, 1) rotate(-180.000000) translate(-7.277882, -16.613196) " points="13.0214251 9.25245795 8.23809336 23.9739345 1.53433971 23.9739345"></polygon>
            <path d="M1.53433971,23.9739134 L0.0806957865,19.5001728 C-0.0518756386,19.0921201 0.0933551272,18.6451047 0.440502371,18.3929729 L13.0214251,9.25243685 L1.53433971,23.9739134 Z" id="path66" fill="#FCA326" transform="translate(6.526794, 16.613175) scale(-1, 1) rotate(-180.000000) translate(-6.526794, -16.613175) "></path>
            <path d="M1.53433973,0.043607222 L8.23809342,0.043607222 L5.35710886,8.91027952 C5.20885392,9.36650807 4.56343855,9.36650807 4.41525394,8.91027952 L1.53433973,0.043607222 Z" id="path74" fill="#E24329" transform="translate(4.886217, 4.648029) scale(-1, 1) rotate(-180.000000) translate(-4.886217, -4.648029) "></path>
            <polygon id="path78" fill="#FC6D26" transform="translate(18.764968, 16.613196) scale(-1, 1) rotate(-180.000000) translate(-18.764968, -16.613196) " points="13.0214251 9.25245795 17.8047569 23.9739345 24.5085106 23.9739345"></polygon>
            <path d="M24.5085036,23.9739134 L25.9621475,19.5001728 C26.0947189,19.0921201 25.9494881,18.6451047 25.6023409,18.3929729 L13.0214181,9.25243685 L24.5085036,23.9739134 Z" id="path82" fill="#FCA326" transform="translate(19.516050, 16.613175) scale(-1, 1) rotate(-180.000000) translate(-19.516050, -16.613175) "></path>
            <path d="M24.5085036,0.043607222 L17.8047499,0.043607222 L20.6857344,8.91027952 C20.8339894,9.36650807 21.4794047,9.36650807 21.6275893,8.91027952 L24.5085036,0.043607222 Z" id="path86" fill="#E24329" transform="translate(21.156627, 4.648029) scale(-1, 1) rotate(-180.000000) translate(-21.156627, -4.648029) "></path>
        </g>
    </g>
</svg>