<svg width="864" height="334" xmlns="http://www.w3.org/2000/svg"><defs><linearGradient x1="8.275%" y1="31.416%" x2="75.688%" y2="48.892%" id="a"><stop stop-color="#FFF" stop-opacity=".507" offset="0%"/><stop stop-color="#FFF" stop-opacity=".186" offset="100%"/></linearGradient></defs><path d="M591.675 333.806H453.52l-.968.194H142.286c-.646-.065-1.356-.13-2.001-.194H0c29.503-1.808 155.262-139.684 167.657-189.797 12.395-50.178 32.796-102.422 73.726-128.383C278.116-7.687 326.47-4.07 362.364 20.857c35.83 24.928 59.071 68.97 65.075 115.144 3.357 25.638 1.485 51.986 5.81 77.495 10.588 62.512 100.13 105.263 100.13 105.263s25.371 10.656 58.296 15.047z" transform="rotate(180 423.169 167)" fill="url(#a)" fill-rule="nonzero" opacity=".529"/></svg>