<svg width="1829" height="418" xmlns="http://www.w3.org/2000/svg"><defs><linearGradient x1="8.275%" y1="48.833%" x2="97.46%" y2="50.352%" id="a"><stop stop-opacity=".077" offset="0%"/><stop stop-color="#FFF" stop-opacity=".101" offset="100%"/></linearGradient><linearGradient x1="8.275%" y1="20.789%" x2="75.688%" y2="48.258%" id="b"><stop stop-opacity=".077" offset="0%"/><stop stop-color="#FFF" stop-opacity=".101" offset="100%"/></linearGradient></defs><g fill-rule="nonzero" fill="none"><path d="M1829 416.513c-186.309-112.356-385.4-168.534-597.275-168.534-139.203-3.81-340.778 52.797-604.725 169.82l1202-1.286z" fill="url(#a)" transform="matrix(-1 0 0 1 2456 0)"/><path d="M0 417.626c75.899-94.277 117.176-154.87 123.831-181.779 20.3-82.177 53.71-167.739 120.742-210.255 60.16-38.18 139.35-32.258 198.135 8.566 58.68 40.825 96.741 112.955 106.574 188.575 5.498 41.987 2.432 85.138 9.516 126.914 2.791 16.482 13.224 39.142 31.297 67.979H0z" fill="url(#b)" opacity=".529" transform="matrix(-1 0 0 1 590.095 0)"/></g></svg>