<svg width="250" height="215" xmlns="http://www.w3.org/2000/svg"><defs><linearGradient x1="50.21%" y1="51.279%" x2="51.231%" y2="14.981%" id="a"><stop stop-color="#EE9224" offset="0%"/><stop stop-color="#EE7421" offset="100%"/></linearGradient><linearGradient x1="49.44%" y1="47.123%" x2="51.845%" y2="5.874%" id="b"><stop stop-color="#EE9224" offset="0%"/><stop stop-color="#EE8024" offset="100%"/></linearGradient><linearGradient x1="30.829%" y1="54.066%" x2="56.682%" y2="43.909%" id="c"><stop stop-color="#EE9224" offset="0%"/><stop stop-color="#FCB850" offset="100%"/></linearGradient><linearGradient x1="49.957%" y1="45.992%" x2="49.514%" y2="-4.348%" id="d"><stop stop-color="#0868A0" offset="0%"/><stop stop-color="#003D61" offset="100%"/></linearGradient><linearGradient x1="50.107%" y1="29.608%" x2="50.442%" y2="-3.34%" id="e"><stop stop-color="#0868A0" offset="0%"/><stop stop-color="#003D61" offset="100%"/></linearGradient></defs><g fill-rule="nonzero" fill="none"><path d="M149.701 160.68c30.905-10.62 63.776-1.524 92.175 17.31 3.735 2.458 7.813 6.048 8.107 11.359.443 8.36-8.058 11.998-14.592 12.932a16002.534 16002.534 0 00-47.857 6.835c-24.075 3.442-48.299 6.885-72.472 4.475-26.582-2.606-52.721-12.293-79.4-12.244-8.108 0-16.51.885-24.027-3-7.518-3.884-13.66-14.506-11.006-24.242 1.867-6.786 7.271-10.917 12.529-13.621 44.515-22.521 73.308 16.227 136.543.197" fill-opacity=".05" fill="#000"/><path fill="#0868A0" d="M165.847 170.603l-1.954.228-10.677-91.222 1.953-.228zM83.588 81.393l1.954.227-10.677 91.222-1.954-.227zM147.708 81.392l1.953.227-10.677 91.222-1.954-.227z"/><path fill="#127FBE" d="M91.575 0L79.721 104.49h73.335L164.861 0H91.575"/><path fill="#65BBED" d="M149.791 104.49H76.625L88.648 0h73.117z"/><path d="M107.443 9.288c-8.407 0-15.182 6.688-15.182 14.986 0 8.299 6.775 14.987 15.182 14.987s15.182-6.688 15.182-14.987c0-8.298-6.825-14.986-15.182-14.986zm.049 27.092c-6.825 0-12.314-5.467-12.314-12.155 0-6.736 5.539-12.155 12.314-12.155 6.824 0 12.314 5.468 12.314 12.155 0 6.688-5.49 12.155-12.314 12.155zm11.424 34.415l-.347 2.002H85.98l.247-2.002h32.689zm10.73 6.2l-.444 1.952H85.139l.248-1.952h44.26zm22.057-18.99l-.346 1.953h-32.64l.248-1.952h32.738zM156.347 14.706L156 17.028h-12.038l.247-2.322zM155.573 20.898l-.438 2.322H135.45l.243-2.322z" fill="#127FBE"/><path d="M153.95 72.71c-.633.196-2.725-1.908-3.065-2.25-.341-.343-.633-.832-.633-1.321 0-.245.049-.538.243-.685.244-.196.633-.049.925.098.73.391 1.362.978 1.897 1.614.049.098 1.557 2.348 1.557 2.348s-.73.05-.924.196" fill="#FCB850"/><path d="M153.512 70.557l9.438 8.463s8.417 3.718 10.411 4.843c1.995 1.126 2.822 3.131 2.822 3.131s.34.832-.292 2.446c-.778 1.957-4.086.392-4.086.392L160.42 82.2c-.146-.098-.243-.196-.389-.342l-8.125-9.93 1.606-1.37z" fill="#FCAA27"/><path d="M177.059 84.695l1.8-7.142s.681-1.712-1.362-2.348l-2.287-.587s-2.238-.49-3.405 2.495c0 0-.39.684-1.168.782 0 0-.39.196-.049.44 0 0 .633.294.487.685 0 0-.535 1.223.34 1.664l1.168.391c.049 0 .097.098.097.147l.827 3.57 3.552-.097zm-16.444 34.341c.34.587-1.07 3.131-1.314 3.571-.243.44-.632.832-1.07.979-.243.098-.535.098-.73-.05-.243-.195-.243-.586-.146-.929a6.527 6.527 0 011.022-2.299c.048-.098 1.8-2.152 1.8-2.152s.243.733.438.88" fill="#FCB850"/><path d="M179.491 171.869l-.73 5.577c0 .195-.145.293-.291.342l-4.476 1.076s-.39 0-.438.587c0 .294.486.343.486.343l8.174.538c.146 0 .243-.098.243-.245l.146-8.022-3.114-.196z" fill="#003D61"/><path d="M23.45 56.404s-4.281 28.764 4.816 48.087c.098.196.244.294.487.343l4.427.391c.243 0 .438-.245.39-.49-1.12-3.521-7.055-24.165-1.509-49.163" fill="url(#a)" transform="translate(150.155 68.111)"/><path d="M158.28 172.26l-.73 5.577c0 .196-.146.293-.292.342l-4.476 1.077s-.39 0-.438.587c0 .293.487.342.487.342l8.173.538c.146 0 .243-.098.243-.244l.146-8.023-3.113-.196z" fill="#003D61"/><path d="M28.315 52.637S17.66 72.498 15.958 76.412c-1.655 3.913-3.357 29.742-3.357 29.742l-5.45-.684s-.145-23.482 2.19-30.624c2.335-7.093 7.006-23.726 7.006-23.726l11.968 1.517z" fill="url(#b)" transform="translate(150.155 68.111)"/><path d="M163.388 125.787l19.412.685s1.46-38.304-4.72-41.581c0 0-4.475-3.18-9.292 5.038-2.481 4.256-5.4 35.858-5.4 35.858z" fill="#FCAA27"/><path d="M158.523 119.134l7.297-14.627s1.752-11.74 2.482-14.627c.73-2.886 3.26-6.457 6.032-5.185 1.898.88 0 5.332 0 5.332l-3.065 15.654c-.048.196-.68 2.006-.827 2.202l-9.73 12.719-2.19-1.468z" fill="#FEBF24"/><path d="M181.68 87.581c-.34.93-8.367.49-7.832-.293.632-1.028.584-2.3.486-3.474-.048-.733-.097-1.614-.194-2.348-.049-.293.486-1.174.535-1.956 0-.05.049-.05.049-.05a.913.913 0 00.389-.097.713.713 0 00.292-.44c.048-.196-.049-.343-.146-.49-.098-.146-.39-.244-.487-.244-.048 0-.048-.05-.048-.05 0-.635-.05-1.222-.195-1.516l-.973-1.223c-.243-.489-.243-1.027.049-1.467.389-.587 1.265-.734 1.994-.538.73.195 3.357 2.054 3.844 2.641.584.734.875 1.761.924 2.642.146 1.761 1.752 7.68 1.314 8.903z" fill="#003D61"/><g><path d="M13.54 1.957s.685.831.832 2.054c0 0-.049.343.293.636l.929.93s.342.244.098.391c0 0-.587.343-.245.587l.196.196s.098.098 0 .244c0 0-.245.196-.05.343l.148.098s.195.195 0 .391c0 0-.147.49 0 .734 0 0 .586.734-.245 1.076l-1.32.636s-.537.685-.146 2.788c0 0-1.418 1.126-4.155 1.664 0 0-.93-3.816-1.614-4.99l-.488-4.843 2.444-3.18 3.128.05.196.195z" fill="url(#c)" transform="translate(44.892 71.981)"/><path d="M56.526 80.2s-.098 1.565-3.275 1.957c-.098 0-.098 0-.196-.294 0 0-.342-1.32-1.222-2.348 0 0-1.32-1.957-.635-4.06.684-2.104 2.444-2.69 2.444-2.69s1.173-.392 2.59-.294c2.347.195 2.396 1.565 2.396 1.565s-.978-.342-1.613.147c-.587.489-.685 1.614-.685 1.614s0 1.076.587 1.614c.587.539.049 1.223.049 1.223s-.342-.733-.782-.587c-.44.147-.685.539-.391 1.028.293.44.733 1.125.733 1.125z" fill="#0075BB"/><path d="M49.78 175.103l.196 5.821c0 .196.097.343.293.392l4.546 1.516s.391.049.391.636c0 .342-.538.294-.538.294l-8.554-.245c-.147 0-.245-.147-.245-.294l.587-8.316 3.324.196z" fill="#003D61"/><path d="M10.95.978s.587 27.297-5.035 50.142c-.049.196-.293.343-.489.343l-4.644.391c-.293 0-.489-.244-.39-.489C1.563 47.696 5.914 25.976 1.954.098" transform="translate(44.892 125.303)" fill="url(#d)"/><path d="M59.752 176.032l.196 5.822c0 .195.098.342.293.391l4.546 1.517s.391.048.391.635c0 .343-.537.294-.537.294l-8.555-.245c-.147 0-.244-.146-.244-.293l.586-8.316 3.324.195z" fill="#003D61"/><path d="M10.95.978s.587 27.297-5.035 50.142c-.049.196-.293.343-.489.343l-4.644.391c-.293 0-.489-.244-.39-.489C1.563 47.696 5.914 25.976 1.954.098" transform="translate(54.668 125.303)" fill="url(#e)"/><path fill="#003D61" d="M69.382 107.105l-8.75.196v-7.142h9.044z"/><path d="M68.111 127.26l-21.802 1.32s-2.493-43.929 8.408-44.613c0 0 8.408-2.397 13.052 6.408 2.444 4.598 3.569 8.903 4.693 12.474 1.124 3.571-3.03 4.256-3.03 4.256l-3.276-6.897 1.955 27.052z" fill="#0868A0"/></g></g></svg>