<?xml version="1.0" encoding="UTF-8"?>
<svg width="32px" height="32px" viewBox="0 0 32 32" version="1.1" xmlns="http://www.w3.org/2000/svg" xmlns:xlink="http://www.w3.org/1999/xlink">
    <!-- Generator: Sketch 50.2 (55047) - http://www.bohemiancoding.com/sketch -->
    <title>Artboard</title>
    <desc>Created with Sketch.</desc>
    <defs></defs>
    <g id="Artboard" stroke="none" stroke-width="1" fill="none" fill-rule="evenodd">
        <g id="Group" transform="translate(-3.000000, -6.000000)">
            <path d="M10.0208153,17.5710678 C10.0208153,20.9327412 11.3519316,24.0798537 13.6819805,26.4099026 C14.267767,26.995689 14.267767,27.9454365 13.6819805,28.5312229 C13.0961941,29.1170094 12.1464466,29.1170094 11.5606602,28.5312229 C8.67357942,25.6441422 7.02081528,21.7365689 7.02081528,17.5710678 C7.02081528,9.01065419 13.9604017,2.07106781 22.5208153,2.07106781 L24.0208153,2.07106781 L24.0208153,11.8994534 C24.0208153,12.7278806 23.3492424,13.3994534 22.5208153,13.3994534 C21.6923882,13.3994534 21.0208153,12.7278806 21.0208153,11.8994534 L21.0208153,5.16014279 C14.8244753,5.90117618 10.0208153,11.1751445 10.0208153,17.5710678 Z" id="Oval-Copy-6" fill="#FEBF24" fill-rule="nonzero" transform="translate(15.520815, 15.520815) rotate(45.000000) translate(-15.520815, -15.520815) "></path>
            <path d="M27.8994949,26.3492424 C27.8994949,22.987569 26.5683786,19.8404565 24.2383297,17.5104076 C23.6525433,16.9246212 23.6525433,15.9748737 24.2383297,15.3890873 C24.8241161,14.8033009 25.7738636,14.8033009 26.35965,15.3890873 C29.2467308,18.276168 30.8994949,22.1837414 30.8994949,26.3492424 C30.8994949,34.909656 23.9599086,41.8492424 15.3994949,41.8492424 L13.8994949,41.8492424 L13.8994949,32.641795 C13.8994949,31.8133678 14.5710678,31.141795 15.3994949,31.141795 C16.2279221,31.141795 16.8994949,31.8133678 16.8994949,32.641795 L16.8994949,38.7601674 C23.0958349,38.019134 27.8994949,32.7451657 27.8994949,26.3492424 Z" id="Oval-Copy-2" fill="#CED4DA" fill-rule="nonzero" transform="translate(22.399495, 28.399495) rotate(45.000000) translate(-22.399495, -28.399495) "></path>
            <path d="M17.8942911,25.6442911 L17.8942911,27.1442911 C17.8942911,29.3534301 16.1034301,31.1442911 13.8942911,31.1442911 C11.6851521,31.1442911 9.89429112,29.3534301 9.89429112,27.1442911 L9.89429112,25.6442911 C9.06586399,25.6442911 8.39429112,24.9727182 8.39429112,24.1442911 C8.39429112,23.315864 9.06586399,22.6442911 9.89429112,22.6442911 L17.8942911,22.6442911 C18.7227182,22.6442911 19.3942911,23.315864 19.3942911,24.1442911 C19.3942911,24.9727182 18.7227182,25.6442911 17.8942911,25.6442911 Z" id="Combined-Shape" fill="#CED4DA" transform="translate(13.894291, 26.894291) rotate(45.000000) translate(-13.894291, -26.894291) "></path>
            <path d="M11.8388348,26.4497475 C11.0104076,26.4497475 10.3388348,25.7781746 10.3388348,24.9497475 C10.3388348,24.1213203 11.0104076,23.4497475 11.8388348,23.4497475 L19.8388348,23.4497475 C20.6672619,23.4497475 21.3388348,24.1213203 21.3388348,24.9497475 C21.3388348,25.7781746 20.6672619,26.4497475 19.8388348,26.4497475 L11.8388348,26.4497475 Z" id="Combined-Shape-Copy" fill="#E6E8EB" transform="translate(15.838835, 24.949747) rotate(45.000000) translate(-15.838835, -24.949747) "></path>
            <g id="Group-2-Copy-2" transform="translate(17.000000, 17.000000)" fill="#FBB301" fill-rule="nonzero">
                <path d="M2.79289322,-0.207106781 C3.18341751,-0.597631073 3.81658249,-0.597631073 4.20710678,-0.207106781 C4.59763107,0.183417511 4.59763107,0.816582489 4.20710678,1.20710678 L1.65759702,3.75661654 C1.26707273,4.14714083 0.633907754,4.14714083 0.243383462,3.75661654 C-0.14714083,3.36609225 -0.14714083,2.73292727 0.243383462,2.34240298 L2.79289322,-0.207106781 Z" id="Line-2-Copy-3"></path>
                <path d="M5.79289322,2.79289322 C6.18341751,2.40236893 6.81658249,2.40236893 7.20710678,2.79289322 C7.59763107,3.18341751 7.59763107,3.81658249 7.20710678,4.20710678 L4.65759702,6.75661654 C4.26707273,7.14714083 3.63390775,7.14714083 3.24338346,6.75661654 C2.85285917,6.36609225 2.85285917,5.73292727 3.24338346,5.34240298 L5.79289322,2.79289322 Z" id="Line-2-Copy-2"></path>
            </g>
            <path d="M27.8942911,15.6442911 L27.8942911,17.1442911 C27.8942911,19.3534301 26.1034301,21.1442911 23.8942911,21.1442911 C21.6851521,21.1442911 19.8942911,19.3534301 19.8942911,17.1442911 L19.8942911,15.6442911 C19.065864,15.6442911 18.3942911,14.9727182 18.3942911,14.1442911 C18.3942911,13.315864 19.065864,12.6442911 19.8942911,12.6442911 L27.8942911,12.6442911 C28.7227182,12.6442911 29.3942911,13.315864 29.3942911,14.1442911 C29.3942911,14.9727182 28.7227182,15.6442911 27.8942911,15.6442911 Z" id="Combined-Shape" fill="#FEBF24" transform="translate(23.894291, 16.894291) rotate(-135.000000) translate(-23.894291, -16.894291) "></path>
        </g>
    </g>
</svg>