<?xml version="1.0" encoding="UTF-8"?>
<svg width="24px" height="24px" viewBox="0 0 24 24" version="1.1" xmlns="http://www.w3.org/2000/svg" xmlns:xlink="http://www.w3.org/1999/xlink">
    <!-- Generator: Sketch 50.2 (55047) - http://www.bohemiancoding.com/sketch -->
    <title>slack</title>
    <desc>Created with Sketch.</desc>
    <defs></defs>
    <g id="Page-1" stroke="none" stroke-width="1" fill="none" fill-rule="evenodd">
        <g id="Directory" transform="translate(-1278.000000, -16.000000)" fill-rule="nonzero">
            <g id="Group-9">
                <g id="Group" transform="translate(1233.000000, 16.000000)">
                    <g id="slack" transform="translate(45.000000, 0.000000)">
                        <path d="M15.4731707,1.5804878 C15.102439,0.468292683 13.9121951,-0.136585366 12.8,0.214634146 C11.6878049,0.585365854 11.0829268,1.77560976 11.4341463,2.88780488 L16.9170732,19.7463415 C17.2878049,20.7804878 18.4195122,21.3658537 19.4926829,21.0536585 C20.6243902,20.7219512 21.3073171,19.5317073 20.9365854,18.4390244 C20.9365854,18.4 15.4731707,1.5804878 15.4731707,1.5804878 Z" id="Shape" fill="#ECB32D"></path>
                        <path d="M6.98536585,4.33170732 C6.61463415,3.2195122 5.42439024,2.61463415 4.31219512,2.96585366 C3.2,3.33658537 2.59512195,4.52682927 2.94634146,5.63902439 L8.42926829,22.497561 C8.8,23.5317073 9.93170732,24.1170732 11.004878,23.804878 C12.1365854,23.4731707 12.8195122,22.2829268 12.4487805,21.1902439 C12.4487805,21.1512195 6.98536585,4.33170732 6.98536585,4.33170732 Z" id="Shape" fill="#63C1A0"></path>
                        <path d="M22.3804878,15.5317073 C23.4926829,15.1609756 24.097561,13.9707317 23.7463415,12.8585366 C23.3756098,11.7463415 22.1853659,11.1414634 21.0731707,11.4926829 L4.19512195,16.995122 C3.16097561,17.3658537 2.57560976,18.497561 2.88780488,19.5707317 C3.2195122,20.702439 4.4097561,21.3853659 5.50243902,21.0146341 C5.54146341,21.0146341 22.3804878,15.5317073 22.3804878,15.5317073 Z" id="Shape" fill="#E01A59"></path>
                        <path d="M7.70731707,20.3121951 C8.8,19.9609756 10.2243902,19.4926829 11.7463415,19.004878 C11.395122,17.9121951 10.9268293,16.4878049 10.4390244,14.9658537 L6.4,16.2731707 L7.70731707,20.3121951 Z" id="Shape" fill="#331433"></path>
                        <path d="M16.2146341,17.5414634 C17.7365854,17.0536585 19.1609756,16.5853659 20.2536585,16.2341463 C19.902439,15.1414634 19.4341463,13.7170732 18.9463415,12.195122 L14.9073171,13.502439 L16.2146341,17.5414634 Z" id="Shape" fill="#D62027"></path>
                        <path d="M19.6097561,7.04390244 C20.7219512,6.67317073 21.3268293,5.48292683 20.9756098,4.37073171 C20.604878,3.25853659 19.4146341,2.65365854 18.302439,3.00487805 L1.44390244,8.48780488 C0.409756098,8.85853659 -0.175609756,9.9902439 0.136585366,11.0634146 C0.468292683,12.195122 1.65853659,12.8780488 2.75121951,12.5073171 C2.7902439,12.5073171 19.6097561,7.04390244 19.6097561,7.04390244 Z" id="Shape" fill="#89D3DF"></path>
                        <path d="M4.95609756,11.804878 C6.04878049,11.4536585 7.47317073,10.9853659 8.99512195,10.497561 C8.50731707,8.97560976 8.03902439,7.55121951 7.68780488,6.45853659 L3.64878049,7.76585366 L4.95609756,11.804878 Z" id="Shape" fill="#258B74"></path>
                        <path d="M13.4439024,9.05365854 C14.9658537,8.56585366 16.3902439,8.09756098 17.4829268,7.74634146 C16.995122,6.22439024 16.5268293,4.8 16.1756098,3.70731707 L12.1365854,5.01463415 L13.4439024,9.05365854 Z" id="Shape" fill="#819C3C"></path>
                    </g>
                </g>
            </g>
        </g>
    </g>
</svg>